<svg width="25" height="25" viewBox="0 0 25 25" fill="none" xmlns="http://www.w3.org/2000/svg">
<circle cx="12.8086" cy="12.2275" r="12" fill="#1D0134"/>
<path d="M20.8435 11.8712C21.4317 11.6283 22.0107 11.3873 22.5467 11.1332C22.6089 11.1033 22.6465 11.0369 22.64 10.9669C22.6016 10.5511 22.5394 10.142 22.4534 9.74213C22.4306 9.63656 22.3162 9.58425 22.222 9.63189C21.642 9.92523 20.9633 10.2064 20.2928 10.4839C18.6252 11.1743 16.7353 11.9562 15.4812 13.1996C15.2772 13.4014 15.0952 13.6116 14.9342 13.8283C14.8344 13.9629 14.6277 13.8807 14.6423 13.7125C14.6725 13.3818 14.7475 13.1081 14.8646 12.8988C15.4153 11.9151 16.3731 10.9865 17.3875 10.0028C18.5676 8.85744 19.8363 7.62522 20.7383 6.07631C20.7721 6.01839 20.7685 5.94459 20.7291 5.89041C20.4812 5.55035 20.2141 5.22619 19.9278 4.91977C19.851 4.83849 19.7202 4.86091 19.668 4.95994C18.8713 6.49577 17.6116 7.71864 16.3776 8.91536C16.1599 9.12742 15.944 9.33668 15.7327 9.54501C15.6092 9.66739 15.4089 9.53567 15.4684 9.37032C16.2084 7.31507 16.8112 5.16733 17.1378 2.96821C17.1488 2.89628 17.1122 2.82435 17.0472 2.79258C16.6887 2.61695 16.3182 2.46281 15.9376 2.33109C15.8416 2.29839 15.741 2.36378 15.7272 2.46561C15.2827 5.70637 14.1813 8.87052 12.9226 11.7946C12.8659 11.9263 12.682 11.9263 12.6253 11.7946C11.3666 8.87052 10.2652 5.7073 9.82067 2.46561C9.80695 2.36378 9.70633 2.29746 9.61028 2.33109C9.22974 2.46188 8.85927 2.61695 8.50068 2.79165C8.43574 2.82341 8.39915 2.89535 8.41012 2.96728C8.73669 5.16733 9.34043 7.31413 10.0796 9.36938C10.139 9.53474 9.93868 9.66739 9.81519 9.54408C9.60479 9.33482 9.38891 9.12555 9.17028 8.91442C7.93628 7.71771 6.67666 6.49484 5.87991 4.959C5.82777 4.85904 5.69696 4.83662 5.62012 4.91883C5.3338 5.22432 5.06578 5.54849 4.81788 5.88947C4.77855 5.94365 4.77489 6.01746 4.80873 6.07538C5.71068 7.62429 6.97945 8.8565 8.15948 10.0018C9.17303 10.9856 10.1308 11.9151 10.6824 12.8979C10.7995 13.1071 10.8754 13.3818 10.9047 13.7125C10.9202 13.8807 10.7126 13.9629 10.6129 13.8283C10.4519 13.6116 10.2698 13.4014 10.0658 13.1996C8.8117 11.9562 6.92182 11.1733 5.25422 10.4839C4.5837 10.2064 3.90496 9.92523 3.325 9.63189C3.23078 9.58425 3.11644 9.6375 3.09357 9.74213C3.00758 10.142 2.94446 10.5502 2.90696 10.9669C2.90055 11.0369 2.93806 11.1042 3.00026 11.1332C3.53631 11.3882 4.11626 11.6283 4.70354 11.8712C7.65911 13.0941 9.78226 14.1544 10.0302 16.1704C10.0494 16.3245 9.86367 16.4161 9.75573 16.3068C8.82634 15.3679 7.0197 14.5738 3.51161 14.9335C3.40916 14.9438 3.34055 15.0503 3.37348 15.1502C3.50338 15.5454 3.65797 15.9294 3.83269 16.3012C3.86196 16.3628 3.926 16.3993 3.99277 16.3937C6.49463 16.1919 8.26742 16.6319 8.96172 17.6576C9.43282 18.3546 9.27457 19.1757 8.96995 19.7129C8.96995 19.7129 8.56929 20.4145 8.33969 20.7713C8.28663 20.8545 8.31407 20.9675 8.40097 21.0114C8.8428 21.2338 9.30292 21.4234 9.7786 21.5776C9.85727 21.6028 9.94142 21.5635 9.97527 21.4869C10.4674 20.365 11.0803 19.1178 11.7225 17.8108C12.017 17.2111 12.3207 16.5926 12.6271 15.9583C12.6866 15.835 12.8586 15.835 12.918 15.9583C13.2245 16.5936 13.5282 17.212 13.8227 17.8108C14.4649 19.1187 15.0769 20.365 15.5699 21.4869C15.6038 21.5635 15.6879 21.6028 15.7666 21.5776C16.2423 21.4234 16.7024 21.2338 17.1442 21.0114C17.2311 20.9675 17.2595 20.8545 17.2055 20.7713C16.9759 20.4145 16.5752 19.7129 16.5752 19.7129C16.2697 19.1767 16.1124 18.3546 16.5835 17.6576C17.2778 16.6319 19.0506 16.1919 21.5524 16.3937C21.6192 16.3993 21.6832 16.3628 21.7125 16.3012C21.8872 15.9294 22.0418 15.5454 22.1717 15.1502C22.2046 15.0503 22.136 14.9438 22.0336 14.9335C18.5255 14.5738 16.7188 15.3688 15.7895 16.3068C15.6815 16.4161 15.4958 16.3245 15.515 16.1704C15.7629 14.1544 17.8861 13.095 20.8416 11.8712H20.8435Z" fill="#9100FF"/>
<path d="M12.7753 22.0567C13.3427 22.0567 13.8026 21.587 13.8026 21.0076C13.8026 20.4281 13.3427 19.9584 12.7753 19.9584C12.208 19.9584 11.748 20.4281 11.748 21.0076C11.748 21.587 12.208 22.0567 12.7753 22.0567Z" fill="#9100FF"/>
</svg>
