<svg width="25" height="25" viewBox="0 0 25 25" fill="none" xmlns="http://www.w3.org/2000/svg">
<path d="M22.5877 11.8023C23.303 11.5069 24.0072 11.2138 24.6591 10.9048C24.7348 10.8684 24.7804 10.7877 24.7726 10.7025C24.7259 10.197 24.6502 9.69934 24.5456 9.21308C24.5178 9.08469 24.3788 9.02107 24.2642 9.07901C23.5589 9.43576 22.7334 9.77773 21.918 10.1152C19.8899 10.9548 17.5916 11.9057 16.0664 13.4179C15.8183 13.6633 15.5969 13.9189 15.4011 14.1825C15.2798 14.3461 15.0284 14.2461 15.0462 14.0416C15.0829 13.6394 15.1742 13.3065 15.3166 13.052C15.9863 11.8557 17.151 10.7264 18.3848 9.53005C19.8198 8.13716 21.3628 6.63861 22.4597 4.75491C22.5009 4.68447 22.4965 4.59472 22.4486 4.52882C22.1471 4.11527 21.8223 3.72104 21.4741 3.34839C21.3806 3.24955 21.2216 3.27681 21.1582 3.39724C20.1892 5.26503 18.6573 6.75222 17.1566 8.2076C16.8918 8.4655 16.6293 8.72 16.3723 8.97335C16.2221 9.12219 15.9785 8.96199 16.0508 8.7609C16.9508 6.26142 17.6839 3.64946 18.081 0.97502C18.0944 0.887538 18.0499 0.800056 17.9709 0.761428C17.5348 0.547836 17.0843 0.360375 16.6215 0.200181C16.5047 0.160417 16.3823 0.239946 16.3656 0.363783C15.825 4.30501 14.4855 8.15307 12.9548 11.7091C12.8858 11.8693 12.6622 11.8693 12.5932 11.7091C11.0625 8.15307 9.72304 4.30614 9.18237 0.363783C9.16569 0.239946 9.04331 0.159281 8.9265 0.200181C8.46372 0.359239 8.01316 0.547836 7.57707 0.760292C7.49809 0.79892 7.45359 0.886402 7.46694 0.973884C7.86409 3.64946 8.59832 6.26028 9.4972 8.75976C9.56951 8.96086 9.32588 9.12219 9.1757 8.97222C8.91983 8.71772 8.65729 8.46323 8.3914 8.20647C6.89068 6.75109 5.3588 5.2639 4.38984 3.39611C4.32643 3.27454 4.16734 3.24727 4.0739 3.34725C3.72569 3.71877 3.39974 4.113 3.09826 4.52769C3.05042 4.59358 3.04597 4.68334 3.08713 4.75378C4.18403 6.63748 5.72703 8.13603 7.16212 9.52892C8.39474 10.7253 9.5595 11.8557 10.2303 13.0509C10.3727 13.3054 10.4651 13.6394 10.5007 14.0416C10.5196 14.2461 10.267 14.3461 10.1458 14.1825C9.94998 13.9189 9.7286 13.6633 9.48052 13.4179C7.95532 11.9057 5.65694 10.9536 3.62891 10.1152C2.81346 9.77773 1.98801 9.43576 1.2827 9.07901C1.16811 9.02107 1.02906 9.08583 1.00124 9.21308C0.896672 9.69934 0.81991 10.1958 0.774299 10.7025C0.766511 10.7877 0.812123 10.8695 0.887771 10.9048C1.53968 11.2149 2.24499 11.5069 2.9592 11.8023C6.5536 13.2895 9.13565 14.579 9.43713 17.0308C9.46049 17.2182 9.23466 17.3296 9.10339 17.1966C7.97312 16.0548 5.77598 15.0891 1.50964 15.5265C1.38505 15.539 1.30161 15.6685 1.34166 15.7901C1.49963 16.2707 1.68764 16.7376 1.90012 17.1898C1.93572 17.2648 2.0136 17.3091 2.09481 17.3023C5.13742 17.0569 7.29339 17.592 8.13776 18.8395C8.71068 19.687 8.51823 20.6857 8.14777 21.339C8.14777 21.339 7.66051 22.1922 7.38128 22.6262C7.31675 22.7273 7.35013 22.8648 7.45581 22.9182C7.99314 23.1886 8.55271 23.4192 9.1312 23.6067C9.22687 23.6373 9.32922 23.5896 9.37038 23.4965C9.96889 22.132 10.7142 20.6152 11.4952 19.0258C11.8534 18.2964 12.2228 17.5443 12.5954 16.7729C12.6678 16.6229 12.8769 16.6229 12.9492 16.7729C13.3219 17.5454 13.6912 18.2975 14.0494 19.0258C14.8304 20.6164 15.5746 22.132 16.1743 23.4965C16.2154 23.5896 16.3178 23.6373 16.4135 23.6067C16.9919 23.4192 17.5515 23.1886 18.0888 22.9182C18.1945 22.8648 18.229 22.7273 18.1634 22.6262C17.8841 22.1922 17.3969 21.339 17.3969 21.339C17.0253 20.6868 16.834 19.687 17.4069 18.8395C18.2513 17.592 20.4072 17.0569 23.4498 17.3023C23.5311 17.3091 23.6089 17.2648 23.6445 17.1898C23.857 16.7376 24.045 16.2707 24.203 15.7901C24.243 15.6685 24.1596 15.539 24.035 15.5265C19.7687 15.0891 17.5715 16.056 16.4413 17.1966C16.31 17.3296 16.0842 17.2182 16.1075 17.0308C16.409 14.579 18.9911 13.2906 22.5855 11.8023H22.5877Z" fill="#9100FF"/>
<path d="M12.7756 24.1893C13.4656 24.1893 14.025 23.6181 14.025 22.9135C14.025 22.2088 13.4656 21.6376 12.7756 21.6376C12.0857 21.6376 11.5263 22.2088 11.5263 22.9135C11.5263 23.6181 12.0857 24.1893 12.7756 24.1893Z" fill="#9100FF"/>
</svg>
