<svg width="165" height="30" viewBox="0 0 165 30" fill="none" xmlns="http://www.w3.org/2000/svg">
<path d="M14.8899 26.8103C15.7459 26.8103 16.44 27.5244 16.4401 28.4051C16.4401 29.286 15.7459 30 14.8899 30C14.0341 29.9998 13.3407 29.2859 13.3407 28.4051C13.3408 27.5245 14.0341 26.8104 14.8899 26.8103Z" fill="#9000FF"/>
<path d="M10.1151 0.0134245C10.2599 -0.037683 10.4114 0.0628869 10.4322 0.217589C11.1029 5.14546 12.7647 9.9542 14.6637 14.3993C14.7493 14.5995 15.027 14.5995 15.1126 14.3993C17.0115 9.95419 18.6733 5.14406 19.3441 0.217589C19.3648 0.062906 19.5163 -0.0362068 19.6612 0.0134245C20.2353 0.21367 20.7948 0.447732 21.3358 0.714726C21.4336 0.763081 21.4886 0.872812 21.4721 0.982063C20.9794 4.32505 20.0698 7.58992 18.9534 10.7142C18.8636 10.9656 19.1659 11.1658 19.3522 10.9797C19.671 10.6631 19.997 10.3453 20.3254 10.023C22.1871 8.20379 24.0872 6.34443 25.2893 4.00974C25.3679 3.8592 25.5659 3.82485 25.6818 3.9484C26.1137 4.41419 26.5163 4.90734 26.8903 5.42425C26.9496 5.50662 26.955 5.61911 26.9039 5.70715C25.5432 8.06147 23.6293 9.93458 21.8492 11.6755C20.3186 13.171 18.8728 14.5829 18.042 16.0783C17.8654 16.3964 17.7522 16.8126 17.7067 17.3152C17.6846 17.5709 17.997 17.6955 18.1474 17.491C18.3902 17.1616 18.6647 16.8419 18.9724 16.5352C20.8646 14.645 23.7165 13.4565 26.2324 12.407C27.2439 11.9853 28.2679 11.5575 29.1428 11.1116C29.2848 11.0393 29.457 11.119 29.4917 11.2791C29.6214 11.8869 29.7154 12.5094 29.7734 13.1413C29.783 13.2478 29.7264 13.3485 29.6325 13.394C28.8238 13.7803 27.9503 14.1472 27.0629 14.5164H27.0602C22.6012 16.3768 19.3974 17.9869 19.0233 21.0515C18.9943 21.2858 19.2748 21.4253 19.4377 21.2594C20.8398 19.8335 23.5657 18.6243 28.8584 19.171C29.0129 19.1866 29.116 19.3487 29.0665 19.5006C28.8705 20.1012 28.6376 20.6851 28.3741 21.2502C28.3299 21.3439 28.2331 21.3997 28.1324 21.3912C24.3579 21.0845 21.6837 21.7536 20.6361 23.3129C19.9254 24.3723 20.1625 25.6215 20.6234 26.4367C20.6234 26.4367 21.2274 27.5037 21.5739 28.0462C21.6553 28.1726 21.6131 28.3447 21.4821 28.4115C20.8155 28.7495 20.1208 29.0378 19.4031 29.2721C19.2845 29.3103 19.158 29.2503 19.1069 29.1339C18.363 27.4283 17.4389 25.5337 16.4701 23.5455C16.0257 22.6352 15.5676 21.6949 15.1053 20.7293C15.0155 20.542 14.7561 20.5419 14.6664 20.7293C14.2041 21.6935 13.746 22.6337 13.3016 23.5455C12.3328 25.5323 11.4082 27.4283 10.6657 29.1339C10.6146 29.2504 10.4873 29.3105 10.3686 29.2721C9.65107 29.0379 8.957 28.7495 8.29053 28.4115C8.15947 28.3448 8.11792 28.1726 8.19785 28.0462C8.54426 27.5037 9.14919 26.4367 9.14919 26.4367C9.60861 25.6202 9.84702 24.3722 9.13647 23.3129C8.08896 21.7536 5.41396 21.0844 1.63933 21.3912C1.53871 21.3996 1.44265 21.3438 1.39854 21.2502C1.13497 20.685 0.90121 20.1013 0.705253 19.5006C0.655857 19.3489 0.759072 19.1869 0.91333 19.171C6.20599 18.6243 8.93182 19.8321 10.334 21.2594C10.4969 21.4255 10.7774 21.2859 10.7484 21.0515C10.3742 17.9871 7.17125 16.3753 2.71243 14.5164C1.82639 14.1472 0.950651 13.7817 0.1419 13.394C0.0482698 13.3499 -0.00858688 13.2477 0.00106144 13.1413C0.0576468 12.5079 0.153009 11.8869 0.282738 11.2791C0.317409 11.1203 0.490508 11.0392 0.632562 11.1116C1.50753 11.5575 2.53134 11.9853 3.54292 12.407C6.05872 13.4551 8.90985 14.6452 10.802 16.5352C11.1097 16.8419 11.3851 17.1616 11.6279 17.491C11.7784 17.6955 12.0912 17.5709 12.0677 17.3152C12.0236 16.8125 11.9091 16.3946 11.7324 16.0765C10.9002 14.5827 9.45518 13.1699 7.92617 11.6746C6.14581 9.93347 4.23133 8.05998 2.87053 5.70532C2.81953 5.61729 2.82484 5.50475 2.88416 5.42242C3.25817 4.90405 3.66339 4.41189 4.09537 3.94749C4.21125 3.82259 4.40826 3.85611 4.48699 4.00791C5.68903 6.3426 7.58914 8.20197 9.45086 10.0212C9.78071 10.3421 10.1066 10.6607 10.424 10.9788C10.6102 11.166 10.9122 10.9645 10.8229 10.7133C9.70776 7.5889 8.79686 4.32476 8.30416 0.980231C8.28767 0.870928 8.34342 0.762074 8.44136 0.71381C8.98231 0.448274 9.54101 0.212227 10.1151 0.0134245Z" fill="#9000FF"/>
<path d="M148.61 23.0762H147.221V20.8105H147.054C146.889 21.182 146.654 21.5611 146.353 21.9521C146.048 22.3409 145.648 22.6681 145.149 22.9346C144.651 23.1986 144.03 23.333 143.284 23.333L143.287 23.3311C142.281 23.3311 141.4 23.0666 140.645 22.5361C139.889 22.0056 139.3 21.2674 138.875 20.3164C138.453 19.3679 138.239 18.2629 138.239 16.999C138.239 15.7353 138.451 14.6403 138.875 13.6943C139.297 12.7484 139.891 12.01 140.651 11.4844C141.412 10.9588 142.299 10.6914 143.31 10.6914C144.055 10.6914 144.673 10.8244 145.169 11.0859C145.665 11.3474 146.06 11.672 146.359 12.0605C146.656 12.4468 146.889 12.8237 147.054 13.1904H147.182V6.78809H148.61V23.0762ZM131.704 10.6924C132.764 10.6924 133.697 10.9607 134.507 11.4961C135.317 12.0315 135.95 12.7752 136.411 13.7236C136.872 14.672 137.101 15.772 137.101 17.0234C137.101 18.2751 136.872 19.3586 136.413 20.3047C135.954 21.2506 135.321 21.991 134.509 22.5264C133.697 23.0617 132.762 23.331 131.704 23.3311C130.644 23.3311 129.709 23.0642 128.896 22.5264C128.084 21.991 127.451 21.2506 126.992 20.3047C126.533 19.3586 126.305 18.2653 126.305 17.0234C126.305 15.7817 126.533 14.6721 126.992 13.7188C127.451 12.7678 128.084 12.0242 128.896 11.4912C129.709 10.9583 130.644 10.6924 131.704 10.6924ZM61.7168 10.3711C62.7939 10.3711 63.739 10.5675 64.5498 10.957C65.3606 11.3466 66.0015 11.8937 66.4717 12.5986C66.9442 13.3036 67.203 14.133 67.251 15.084H64.0176C63.9264 14.4699 63.6864 13.9752 63.2979 13.5977C62.9092 13.2201 62.4 13.0342 61.7715 13.0342C61.2415 13.0342 60.7781 13.1776 60.3848 13.4619C59.9916 13.7487 59.6845 14.1624 59.4639 14.707C59.2433 15.2518 59.1357 15.9115 59.1357 16.6855C59.1358 17.4596 59.2437 18.138 59.4619 18.6875C59.6802 19.2371 59.987 19.6585 60.3828 19.9453C60.7786 20.2344 61.2443 20.3779 61.7744 20.3779C62.1654 20.3779 62.5178 20.2958 62.832 20.1357C63.1463 19.9756 63.405 19.7414 63.6113 19.4355C63.8176 19.1297 63.9552 18.7597 64.0176 18.3271H67.251C67.1982 19.2687 66.9415 20.0931 66.4834 20.8076C66.0252 21.5222 65.3939 22.0794 64.5879 22.4785C63.7844 22.8798 62.8322 23.0781 61.7314 23.0781V23.083C60.4649 23.083 59.3779 22.815 58.4688 22.2773C57.5596 21.7397 56.8615 20.994 56.377 20.0381C55.8924 19.0822 55.6494 17.9804 55.6494 16.7354C55.6494 15.4904 55.895 14.3675 56.3867 13.4141C56.8784 12.4606 57.5758 11.7144 58.4824 11.1768C59.3892 10.6391 60.467 10.3711 61.7168 10.3711ZM87.1719 10.3711C88.4217 10.3711 89.501 10.637 90.4102 11.1699C91.3193 11.7005 92.0205 12.4439 92.5146 13.3975C93.0086 14.3508 93.2529 15.4643 93.2529 16.7354C93.2529 18.0067 93.0064 19.1041 92.5146 20.0576C92.0205 21.0111 91.3193 21.7537 90.4102 22.2842C89.501 22.8147 88.4217 23.083 87.1719 23.083C85.9221 23.083 84.8428 22.8171 83.9336 22.2842C83.0244 21.7537 82.3233 21.0111 81.8291 20.0576C81.3349 19.1041 81.0908 17.9972 81.0908 16.7354C81.0908 15.4738 81.3375 14.3508 81.8291 13.3975C82.3233 12.4439 83.0244 11.7005 83.9336 11.1699C84.8427 10.6395 85.9221 10.3711 87.1719 10.3711ZM55.6494 23.082H51.6768L45.21 9.86816L38.665 23.082H34.7383L42.8223 6.66895H47.6064L55.6494 23.082ZM72.1465 10.3701H74.4717V12.9346L72.1465 12.9326V19.124C72.1465 19.4394 72.1951 19.6839 72.291 19.8584C72.3869 20.0325 72.5238 20.1544 72.6963 20.2236C72.8714 20.2929 73.0735 20.3281 73.3037 20.3281C73.4642 20.3281 73.6247 20.3147 73.7852 20.2861C73.9459 20.2575 74.0689 20.2335 74.1553 20.2168L74.6943 22.7568C74.5217 22.8094 74.2821 22.8737 73.9707 22.9453C73.6588 23.017 73.2812 23.0628 72.835 23.0771C72.0101 23.1081 71.2857 23.0008 70.667 22.75C70.0482 22.4991 69.5657 22.1095 69.2227 21.5791C68.8797 21.0511 68.7121 20.3813 68.7168 19.5762V6.6709L68.7188 6.66895H72.1465V10.3701ZM79.6748 23.082H76.2471V10.3711H79.6748V23.082ZM97.9336 12.7012H98.0771C98.3506 11.9842 98.8092 11.4177 99.4521 10.9971C100.095 10.5766 100.877 10.3682 101.793 10.3682C102.652 10.3682 103.4 10.5547 104.038 10.9297C104.676 11.3025 105.173 11.8387 105.525 12.5293C105.88 13.2222 106.056 14.0439 106.056 15.002V23.0801H102.628V15.6113C102.633 14.8588 102.441 14.2686 102.05 13.8457C101.659 13.4203 101.119 13.208 100.433 13.208C99.9721 13.208 99.5641 13.3056 99.2139 13.5039C98.8614 13.7022 98.5878 13.9888 98.3936 14.3662C98.1969 14.7437 98.0966 15.1956 98.0918 15.7236H98.0967V23.0801H94.668V10.3682H97.9336V12.7012ZM116.439 20.9766H116.582L122.514 6.78809H124.239V23.0762H122.833V9.92871H122.705L117.188 23.0762H115.831L110.314 9.92871H110.188V23.0762H108.781V6.78809H110.509L116.439 20.9766ZM164.438 23.0762H163.018V6.78809H164.438V23.0762ZM156.053 10.4072C156.718 10.4072 157.358 10.5267 157.977 10.7686C158.595 11.0106 159.15 11.3778 159.641 11.874C160.134 12.3703 160.522 12.9941 160.812 13.7422C161.099 14.4926 161.243 15.3798 161.243 16.4014V17.1006H152.111C152.131 17.9977 152.299 18.7853 152.617 19.4648C152.956 20.1882 153.435 20.748 154.058 21.1465C154.681 21.5449 155.417 21.7431 156.269 21.7432C156.848 21.7432 157.359 21.6526 157.798 21.4717C158.237 21.2908 158.608 21.0487 158.907 20.7432C159.209 20.4377 159.435 20.1028 159.59 19.7363L160.939 20.1738C160.753 20.6872 160.448 21.164 160.026 21.5967C159.604 22.0317 159.077 22.381 158.446 22.6426C157.816 22.9042 157.088 23.0361 156.269 23.0361V23.0459C155.125 23.0458 154.134 22.7789 153.3 22.2461C152.463 21.7132 151.817 20.9724 151.363 20.0264C150.909 19.0804 150.682 17.9897 150.682 16.7529C150.682 15.5162 150.909 14.4308 151.363 13.4727C151.817 12.5145 152.449 11.7668 153.256 11.2217C154.063 10.6791 154.995 10.4073 156.053 10.4072ZM143.454 11.9824C142.654 11.9824 141.945 12.205 141.383 12.6475C140.821 13.0899 140.397 13.6894 140.104 14.4424C139.815 15.1953 139.67 16.0409 139.67 16.9795C139.67 17.9182 139.817 18.7837 140.109 19.5488C140.401 20.314 140.829 20.9179 141.391 21.3652C141.953 21.8125 142.639 22.0381 143.454 22.0381L143.456 22.0352C144.249 22.0352 144.926 21.8203 145.483 21.3877C146.04 20.955 146.47 20.358 146.765 19.5977C147.059 18.8375 147.209 17.9649 147.209 16.9775C147.209 15.9901 147.061 15.1391 146.77 14.3887C146.478 13.6382 146.051 13.0484 145.491 12.623C144.932 12.1977 144.254 11.9824 143.454 11.9824ZM131.704 11.9805C130.853 11.9805 130.139 12.21 129.545 12.6719C128.951 13.1339 128.501 13.7456 128.194 14.5107C127.888 15.2758 127.736 16.1118 127.736 17.0234C127.736 17.9352 127.888 18.7715 128.194 19.5293C128.501 20.2871 128.951 20.8934 129.54 21.3506C130.129 21.8076 130.853 22.0352 131.704 22.0352C132.556 22.0351 133.277 21.8077 133.868 21.3506C134.46 20.8934 134.906 20.2871 135.213 19.5293C135.52 18.7715 135.672 17.9353 135.672 17.0234C135.672 16.1117 135.52 15.2734 135.213 14.5107C134.906 13.748 134.46 13.1339 133.868 12.6719C133.277 12.21 132.555 11.9805 131.704 11.9805ZM87.1865 12.9736C86.618 12.9736 86.1308 13.1365 85.7422 13.4639C85.3536 13.7912 85.061 14.2334 84.8643 14.7949C84.6676 15.3565 84.5713 15.9945 84.5713 16.709C84.5713 17.4235 84.6699 18.0644 84.8643 18.626C85.061 19.1875 85.3512 19.6296 85.7422 19.9521C86.1308 20.2747 86.6132 20.4375 87.1865 20.4375C87.7549 20.4374 88.23 20.2747 88.6113 19.9521C88.9927 19.6295 89.2808 19.1875 89.4775 18.626C89.6743 18.0644 89.7695 17.4259 89.7695 16.709C89.7695 15.9922 89.6718 15.3541 89.4775 14.7949C89.2808 14.2334 88.9927 13.7913 88.6113 13.4639C88.23 13.1389 87.7549 12.9737 87.1865 12.9736ZM156.053 11.6904C155.275 11.6905 154.593 11.8986 154.002 12.3115C153.411 12.7246 152.948 13.2722 152.617 13.9492C152.331 14.5344 152.165 15.1694 152.121 15.8516H159.791C159.791 15.067 159.631 14.3606 159.314 13.7324C158.998 13.1041 158.558 12.6079 157.996 12.2412C157.434 11.8746 156.786 11.6904 156.053 11.6904ZM77.957 6.66699C78.4224 6.66699 78.838 6.8125 79.1738 7.10645C79.5072 7.39797 79.6748 7.74712 79.6748 8.15332C79.6747 8.55945 79.5071 8.91316 79.1738 9.20703C78.8404 9.49852 78.4373 9.64642 77.9648 9.64648C77.4947 9.64648 77.0888 9.50097 76.7529 9.20703C76.4172 8.91554 76.2471 8.56424 76.2471 8.15332C76.2471 7.74233 76.4148 7.40036 76.7529 7.10645C77.0911 6.81496 77.4918 6.66706 77.957 6.66699Z" fill="#FAF3FF"/>
<path d="M45.1957 23.082C46.3868 23.082 47.3523 22.1201 47.3523 20.9336C47.3523 19.747 46.3868 18.7852 45.1957 18.7852C44.0046 18.7852 43.0391 19.747 43.0391 20.9336C43.0391 22.1201 44.0046 23.082 45.1957 23.082Z" fill="#9000FF"/>
</svg>
